<svg id="Layer_1" data-name="Layer 1" xmlns="http://www.w3.org/2000/svg" viewBox="0 0 50 50"><defs><style>.cls-1{fill:#fff;}</style></defs><title>locked1</title><path class="cls-1" d="M40.77,24.73H11.88a3.64,3.64,0,0,0-3.63,3.63V45a3.64,3.64,0,0,0,3.63,3.63H40.77A3.64,3.64,0,0,0,44.4,45V28.36a3.64,3.64,0,0,0-3.63-3.63h0Zm-2.84-3.11V17.16a11.6,11.6,0,0,0-23.21,0v4.46a.56.56,0,0,1-.56.56H10.55a.56.56,0,0,1-.55-.56V17.16a16.33,16.33,0,0,1,32.65,0v4.46a.56.56,0,0,1-.55.56H38.49a.56.56,0,0,1-.56-.56Zm-11.6,8.51a3.69,3.69,0,0,1,2.14,6.7v5.78a1.78,1.78,0,0,1-1.77,1.78H26a1.78,1.78,0,0,1-1.77-1.78V36.83a3.69,3.69,0,0,1,2.14-6.7Z"/></svg>