<svg id="Layer_2" data-name="Layer 2" xmlns="http://www.w3.org/2000/svg" viewBox="0 0 50 50"><defs><style>.cls-1{fill:#fff;}</style></defs><title>locked</title><path class="cls-1" d="M40.8,24.89H12.11a3.61,3.61,0,0,0-3.6,3.6V45.06a3.62,3.62,0,0,0,3.6,3.6H40.8a3.61,3.61,0,0,0,3.6-3.6V28.5a3.62,3.62,0,0,0-3.6-3.6h0ZM34.15,8.8a11.53,11.53,0,0,0-19.23,8.57V21.8a.56.56,0,0,1-.56.56H10.79a.56.56,0,0,1-.56-.56V17.37A16.2,16.2,0,0,1,37.4,5.44a.5.5,0,0,1,.18.4.55.55,0,0,1-.15.4L34.91,8.78a.56.56,0,0,1-.76,0h0ZM26.46,30.26a3.66,3.66,0,0,1,2.12,6.65v5.74a1.77,1.77,0,0,1-1.76,1.77h-.73a1.77,1.77,0,0,1-1.76-1.77V36.91a3.67,3.67,0,0,1,2.12-6.65Z"/><path class="cls-1" d="M40.85,24.88H12.06A3.62,3.62,0,0,0,8.45,28.5V45.11a3.63,3.63,0,0,0,3.62,3.62H40.85a3.62,3.62,0,0,0,3.62-3.62V28.5a3.63,3.63,0,0,0-3.62-3.62h0ZM34.18,8.73a11.57,11.57,0,0,0-19.29,8.6v4.45a.56.56,0,0,1-.56.56H10.74a.56.56,0,0,1-.56-.56V17.33a16.25,16.25,0,0,1,27.25-12,.5.5,0,0,1,.18.4.55.55,0,0,1-.15.4L34.94,8.71a.56.56,0,0,1-.76,0h0ZM26.46,30.26a3.68,3.68,0,0,1,2.13,6.68v5.76a1.77,1.77,0,0,1-1.76,1.77h-.74a1.77,1.77,0,0,1-1.76-1.77V36.94a3.68,3.68,0,0,1,2.13-6.68Z"/></svg>